<svg xmlns="http://www.w3.org/2000/svg" xmlns:xlink="http://www.w3.org/1999/xlink" xmlns:xodm="http://www.corel.com/coreldraw/odm/2003" xml:space="preserve" version="1.1" style="shape-rendering:geometricPrecision;text-rendering:geometricPrecision;image-rendering:optimizeQuality;" viewBox="0 0 39370.08 49212.600000000006" x="0px" y="0px" fill-rule="evenodd" clip-rule="evenodd"><defs><style type="text/css">
   
    .fil0 {fill:black;fill-rule:nonzero}
   
  </style></defs><g><path class="fil0" d="M23220.58 2999.21c3048.48,-2687.73 6822.44,-2582.33 10517.02,-1759.63 269.76,60.07 539.11,123.96 807.71,190.87 334.49,83.32 638.33,180.93 910.96,291.82 455.18,185.15 825.05,123.72 1282.69,351.68 340.01,169.37 585.76,401.97 785.68,721.11 1342.24,2142.43 1415.12,4136.01 -296.7,6061.39l-24387.15 27685.21c-2300.29,2611.31 -4634.68,3455.98 -7804.69,1679.55 -1420.3,-795.92 -2660.87,-2011.06 -3490.49,-3238.74 -393.46,-582.24 -744.78,-1263.68 -997.67,-2063.34 -306.41,-968.87 -512.87,-2269.23 -351.31,-3329.3 318.51,-2089.88 1855.78,-4173.18 3149.12,-5800.14 2248.7,-2828.68 5398.17,-6312.37 8585.99,-9660.22 4487.54,-4712.81 9052.27,-9158.34 11288.85,-11130.25zm-14308.03 35186.53c-108.33,14.12 -129.8,-150.59 -21.48,-164.71 1051.07,-138.16 1962.15,-930.97 2640.78,-1694.13 72.69,-81.68 197.04,29 124.35,110.68 -707.98,796.17 -1648.61,1604.23 -2743.65,1748.17zm25710.68 -28088.85l-773.53 -1595.27 -921.17 1024.85 837.44 1564.72c40.81,74.83 122.96,117.37 208.46,39.51l609.15 -696.31c111.02,-131.22 116.74,-178.51 39.65,-337.51zm-533.47 -1862.35l832.95 1717.82c128.15,264.29 118.16,494.8 -96.29,709.25l-623.84 712.83c-218.35,236.51 -596.46,154.74 -733.48,-134.15l-776.61 -1451.2 -824.59 917.41 841.81 1736.08c180.89,312.67 78.39,567.67 -96.42,709.12l-623.71 712.96c-320.65,234.76 -577.31,125.59 -733.42,-134.17l-785.6 -1469.36 -824.52 917.32 850.67 1754.35c143.37,295.69 106.52,477.19 -103.15,716.8l-616.98 705.27c-218.16,236.29 -583.48,188.7 -733.48,-134.15l-794.46 -1487.57 -824.45 917.25 859.52 1772.61c128.15,264.29 118.16,494.8 -96.29,709.25l-623.84 712.83c-221.96,240.41 -599.12,149.15 -733.48,-134.15l-803.39 -1505.76 -824.38 917.17 868.38 1790.88c128.14,264.28 118.17,494.81 -96.29,709.25l-623.84 712.83c-221.96,240.41 -599.12,149.15 -733.48,-134.15l-812.32 -1523.96 -824.31 917.09 877.24 1809.15c155.4,306.8 113.73,502.63 -96.42,709.12l-631.52 721.42c-351.66,327.93 -633.32,28.76 -725.59,-142.65l-821.31 -1542.11 -824.25 917.02 886.09 1827.42c157.56,273.24 139.23,465.74 -96.42,709.12l-623.71 712.96c-221.96,240.41 -599.12,149.15 -733.48,-134.15l-830.16 -1560.35 -824.19 916.96 894.95 1845.68c147.24,300.53 124.74,475.53 -96.42,709.12l-631.52 721.42c-224.04,222.36 -583.91,145.85 -722.25,-135.54l-842.91 -1585.16 -823.71 916.43 903.81 1863.94c128.15,264.29 118.16,494.8 -96.29,709.25l-623.84 712.83c-219.24,237.46 -593.09,151.52 -730.06,-127.07l-851.83 -1603.36 -823.65 916.36 912.67 1882.21c128.15,264.29 118.16,494.8 -96.29,709.25l-623.84 712.83c-219.24,237.46 -593.09,151.52 -730.06,-127.07l-860.74 -1621.56c-689.4,767 -1288.32,1585.83 -2008.74,2324.05 -1628.01,1668.23 -3726.15,2995.23 -6033.84,1694.82 -1659.69,-935.26 -2815.39,-1884.73 -3541.9,-2871.11 -268.04,-363.93 -297.54,-470.49 -99.91,49.4 224.35,590.14 504.46,1107.3 811.28,1561.35 803.31,1188.75 2003.7,2364.88 3377.21,3134.57 3015.58,1689.89 5191.11,889.24 7378.59,-1594.1l24401.5 -27701.5c1648.95,-1984.63 1547.09,-3617.1 264.44,-5664.41 -188.06,-300.21 -423.83,-505.35 -749.39,-643.09 1124.93,962.64 772.13,2225.8 -48.56,3284.89l-2355.68 2621.91zm-156.83 -323.42l2255.32 -2509.17c744.03,-963.67 1072.26,-2063.95 -2.5,-2896.77 -335.44,-259.94 -789.46,-479.54 -1358.14,-652.2 -444.74,-135.02 -262.68,-89.88 -60.41,119.24 948.38,980.44 -519.68,2513.31 -1218.23,3264.48l-6662.51 7164.35c-74.5,80.07 -196.24,-33.22 -121.74,-113.28l6662.51 -7164.35c1043.15,-1121.72 2607.13,-2841.62 233.74,-3560.21 -3059.54,-720.46 -6290.46,-901.64 -9054.51,816.74 -337.07,209.56 -311.02,163.61 17.91,122.67 714.42,-88.93 1376.52,121.02 1920.47,546.67l2608.32 2041.07c171.91,134.28 -32.52,396 -204.43,261.72l-2608.32 -2041.07c-475.08,-371.76 -1052.83,-555.19 -1675.69,-477.66 -536.39,66.76 -1108.47,326.3 -1681.31,824.16 -2359.61,2130.42 -6619.47,6299.4 -10810.81,10701.14 -3133.19,3290.48 -6227.48,6710.06 -8460.45,9504.17 -354.78,443.94 -918.09,1073.88 -1045.48,1624.95 -188.04,813.5 537.3,1217.72 1219.79,1375.47l4048.5 941.5c213.22,48.8 139.02,373.02 -74.22,324.21l-4048.5 -941.5c-609.16,-140.81 -1260.8,-475.08 -1452.82,-1074.46 -113.63,-354.72 35.96,-526.03 -279.32,-45.43 -821.94,1252.94 -1364.23,2413.78 -1544.4,3506.5 -486.65,2951.46 1903.1,4853.26 4279.22,6192.23 2178.2,1227.44 4160.35,-112.76 5677.16,-1680.91 713.82,-737.98 1344.63,-1590.87 2043.89,-2368.84 5181.94,-5765.24 10363.9,-11530.45 15545.84,-17295.69l603.61 -671.55c1749.17,-1946.06 3498.33,-3892.11 5247.51,-5838.17zm-1522.71 4675.98l-782.38 -1613.53 -921.2 1024.89 846.33 1582.95c40.81,74.83 123.46,110.49 215.17,31.84l602.44 -688.64c111.02,-131.22 116.74,-178.51 39.65,-337.51zm-2213 2490.22l-791.24 -1631.8 -921.24 1024.93 839.99 1572.66c70.32,131.67 154.5,147.11 263.28,22.78l569.56 -651.06c111.02,-131.22 116.74,-178.51 39.65,-337.51zm-3934.37 1865.12l864.11 1619.41c40.81,74.83 117.23,126.94 191.94,58.39l632.82 -723.65c111.49,-111.49 98.14,-193.64 32.49,-329.04l-817.79 -1631.46 -903.58 1006.37zm-491.63 3115.31l-808.96 -1668.33 -921.3 1025 873 1637.63c40.42,74.12 133.3,121.5 220.07,30.26l604.7 -695.53c111.49,-111.49 98.14,-193.65 32.49,-329.04zm-2213 2490.21l-817.81 -1686.59 -762.33 848.14 -159 176.9 869.4 1632.4c40.72,76.46 138.28,140.54 228.92,57.37l601.19 -690.71c111.02,-131.22 116.75,-178.51 39.65,-337.51zm-2213 2490.22l-826.67 -1704.86 -921.37 1025.07 890.78 1674.09c40.42,74.12 117.52,126.67 191.94,58.39l632.82 -723.65c111.49,-111.49 98.14,-193.65 32.49,-329.04zm-2213 2490.22l-835.53 -1723.13 -729.7 811.83 -191.29 212.82 899.91 1692.78c34.67,76.26 120.43,123.41 191.3,58.38l625.66 -715.19c111.02,-131.22 116.74,-178.51 39.65,-337.51zm-2213 2490.22l-844.39 -1741.39 -921.02 1024.69 908.8 1711.01c34.67,76.26 120.43,123.41 191.3,58.38l632.82 -723.65c111.48,-111.48 98.14,-193.65 32.49,-329.04zm-2213 2490.22l-853.24 -1759.65 -921.05 1024.72 917.69 1729.24c34.67,76.26 120.43,123.41 191.3,58.38l625.66 -715.19c111.02,-131.22 116.74,-178.51 39.65,-337.51zm-10206.46 694.74c-99.76,-44.95 -31.41,-196.65 68.36,-151.69 1513.17,684.96 2822.02,250.71 3950.07,-894.84l6003.57 -6784.32c72.28,-81.68 196.61,28.35 124.35,110.02l-6008.98 6790.38c-1177.16,1195.67 -2559.98,1644.48 -4137.37,930.45zm-890.56 -4431.09c343.58,337.91 165.76,810.14 -197.6,1051.59 -366.42,243.46 -962.39,291.8 -1298.38,-38.65 -343.58,-337.91 -165.76,-810.14 197.6,-1051.59 366.42,-243.46 962.39,-291.8 1298.38,38.65zm-1114.79 238.69c-178.51,118.61 -333.64,354.81 -148.12,537.27 220.11,216.48 651.87,151.01 881.72,-1.72 178.51,-118.61 333.64,-354.81 148.12,-537.27 -220.11,-216.48 -651.87,-151.01 -881.72,1.72zm4441.7 1087.21c407.61,400.89 189.79,957.72 -239.2,1242.78 -438.35,291.28 -1157.67,353.29 -1560.71,-43.09 -407.61,-400.89 -189.79,-957.72 239.2,-1242.78 438.35,-291.28 1157.67,-353.29 1560.71,43.09zm-1377.12 234.25c-244.41,162.41 -439.52,482.79 -189.72,728.46 287.22,282.47 842.21,203.3 1144.05,2.72 244.41,-162.4 439.52,-482.79 189.72,-728.46 -287.22,-282.47 -842.21,-203.3 -1144.05,-2.72zm23315.02 -28444.91c343.58,337.91 165.76,810.14 -197.6,1051.59 -366.42,243.46 -962.39,291.8 -1298.38,-38.65 -343.58,-337.91 -165.76,-810.14 197.6,-1051.59 366.42,-243.46 962.39,-291.8 1298.38,38.65zm-1114.79 238.69c-178.51,118.61 -333.64,354.81 -148.12,537.27 220.11,216.48 651.87,151.01 881.72,-1.72 178.51,-118.61 333.64,-354.81 148.12,-537.27 -220.11,-216.48 -651.87,-151.01 -881.72,1.72zm4704.41 642.93c407.61,400.89 189.79,957.72 -239.2,1242.78 -438.35,291.28 -1157.67,353.29 -1560.71,-43.09 -407.61,-400.89 -189.79,-957.72 239.2,-1242.78 438.35,-291.28 1157.67,-353.29 1560.71,43.09zm-1377.12 234.25c-244.41,162.4 -439.52,482.79 -189.72,728.46 287.22,282.47 842.21,203.3 1144.05,2.72 244.41,-162.41 439.52,-482.79 189.72,-728.46 -287.22,-282.47 -842.21,-203.3 -1144.05,-2.72z"/></g><text x="0" y="39385.08" fill="#000000" font-size="5px" font-weight="bold" font-family="'Helvetica Neue', Helvetica, Arial-Unicode, Arial, Sans-serif">Created by Oleksandr Panasovskyi</text><text x="0" y="39390.08" fill="#000000" font-size="5px" font-weight="bold" font-family="'Helvetica Neue', Helvetica, Arial-Unicode, Arial, Sans-serif">from the Noun Project</text></svg>