<svg id="visual" viewBox="0 0 540 960" width="540" height="960" xmlns="http://www.w3.org/2000/svg" xmlns:xlink="http://www.w3.org/1999/xlink" version="1.1"><rect x="0" y="0" width="540" height="960" fill="#002233"></rect><path d="M0 587L22.5 590.7C45 594.3 90 601.7 135 592.5C180 583.3 225 557.7 270 550C315 542.3 360 552.7 405 572C450 591.3 495 619.7 517.5 633.8L540 648L540 961L517.5 961C495 961 450 961 405 961C360 961 315 961 270 961C225 961 180 961 135 961C90 961 45 961 22.5 961L0 961Z" fill="#0066FF" stroke-linecap="round" stroke-linejoin="miter"></path></svg>